<svg width="13" height="15" viewBox="0 0 13 15" fill="none" xmlns="http://www.w3.org/2000/svg">
<path d="M7.94083 6.5C7.94083 6.78706 7.85529 7.06761 7.69514 7.30585C7.53499 7.54408 7.30748 7.72919 7.04166 7.83756V9.56945C7.04166 9.71311 6.9846 9.85088 6.88301 9.95246C6.78143 10.054 6.64366 10.1111 6.5 10.1111C6.35634 10.1111 6.21856 10.054 6.11698 9.95246C6.0154 9.85088 5.95833 9.71311 5.95833 9.56945V7.84045C5.71496 7.74276 5.50277 7.58066 5.34453 7.37153C5.18629 7.1624 5.08797 6.91414 5.06011 6.65338C5.03226 6.39261 5.07592 6.12918 5.18642 5.89135C5.29691 5.65352 5.47007 5.45025 5.68732 5.30336C5.90457 5.15647 6.15771 5.0715 6.41959 5.05755C6.68147 5.04361 6.9422 5.10123 7.17382 5.22422C7.40544 5.34721 7.5992 5.53094 7.73433 5.7557C7.86945 5.98045 7.94084 6.23775 7.94083 6.5Z" fill="white"/>
<path d="M0.541667 2.16667C0.398008 2.16667 0.260233 2.22373 0.15865 2.32532C0.0570682 2.4269 0 2.56467 0 2.70833V6.5C0 10.1118 2.13633 12.766 6.30139 14.4069C6.42902 14.4572 6.57098 14.4572 6.69861 14.4069C10.8637 12.766 13 10.1111 13 6.5V2.70833C13 2.56467 12.9429 2.4269 12.8413 2.32532C12.7398 2.22373 12.602 2.16667 12.4583 2.16667C10.5351 2.16667 8.66089 1.48561 6.825 0.108333C6.73124 0.0380131 6.6172 0 6.5 0C6.3828 0 6.26876 0.0380131 6.175 0.108333C4.33911 1.48561 2.46494 2.16667 0.541667 2.16667ZM1.08333 6.5V3.23411C2.9445 3.12433 4.75222 2.44689 6.5 1.21189C8.24778 2.44689 10.0555 3.12433 11.9167 3.23411V6.5C11.9167 9.57378 10.1451 11.8293 6.5 13.3192C2.85494 11.8293 1.08333 9.57378 1.08333 6.5Z" fill="white"/>
</svg>
