<svg width="16" height="16" viewBox="0 0 16 16" fill="none" xmlns="http://www.w3.org/2000/svg">
<path d="M3.66863 3.08468L3.66663 4.50001V11.5027C3.66663 12.0773 3.8949 12.6284 4.30123 13.0347C4.70756 13.4411 5.25866 13.6693 5.83329 13.6693H11.5773C11.4738 13.9618 11.2822 14.215 11.0288 14.3941C10.7755 14.5732 10.4729 14.6693 10.1626 14.6693H5.83329C4.99344 14.6693 4.18799 14.3357 3.59412 13.7418C3.00026 13.148 2.66663 12.3425 2.66663 11.5027V4.50001C2.66663 3.84668 3.08463 3.29001 3.66863 3.08468ZM11.8333 1.33334C12.0303 1.33334 12.2253 1.37214 12.4073 1.44752C12.5893 1.52291 12.7547 1.6334 12.894 1.77268C13.0332 1.91197 13.1437 2.07733 13.2191 2.25932C13.2945 2.44131 13.3333 2.63636 13.3333 2.83334V11.5C13.3333 11.697 13.2945 11.892 13.2191 12.074C13.1437 12.256 13.0332 12.4214 12.894 12.5607C12.7547 12.7 12.5893 12.8104 12.4073 12.8858C12.2253 12.9612 12.0303 13 11.8333 13H5.83329C5.43547 13 5.05394 12.842 4.77263 12.5607C4.49133 12.2794 4.33329 11.8978 4.33329 11.5V2.83334C4.33329 2.43552 4.49133 2.05399 4.77263 1.77268C5.05394 1.49138 5.43547 1.33334 5.83329 1.33334H11.8333ZM11.8333 2.33334H5.83329C5.70068 2.33334 5.57351 2.38602 5.47974 2.47979C5.38597 2.57356 5.33329 2.70074 5.33329 2.83334V11.5C5.33329 11.776 5.55729 12 5.83329 12H11.8333C11.9659 12 12.0931 11.9473 12.1868 11.8536C12.2806 11.7598 12.3333 11.6326 12.3333 11.5V2.83334C12.3333 2.70074 12.2806 2.57356 12.1868 2.47979C12.0931 2.38602 11.9659 2.33334 11.8333 2.33334Z" fill="white"/>
</svg>
