<svg width="16" height="16" viewBox="0 0 16 16" fill="none" xmlns="http://www.w3.org/2000/svg">
<path d="M14.02 1.98C14.4673 2.42734 14.7186 3.03405 14.7186 3.66667C14.7186 4.29929 14.4673 4.906 14.02 5.35333L6.04133 13.3333C5.85676 13.518 5.62719 13.6513 5.37533 13.72L1.96466 14.65C1.87965 14.6731 1.79006 14.6733 1.70496 14.6506C1.61985 14.6279 1.54224 14.5831 1.47999 14.5208C1.41775 14.4585 1.37306 14.3808 1.35047 14.2957C1.32788 14.2106 1.32817 14.121 1.35133 14.036L2.28133 10.6253C2.35006 10.3735 2.48334 10.1439 2.66799 9.95933L10.6467 1.98C11.094 1.53268 11.7007 1.28137 12.3333 1.28137C12.9659 1.28137 13.5727 1.53268 14.02 1.98ZM9.99999 4.04L3.37466 10.6667C3.31319 10.7282 3.26884 10.8047 3.24599 10.8887L2.54599 13.4553L5.11266 12.7553C5.19626 12.7319 5.27231 12.6871 5.33333 12.6253L11.96 6L9.99999 4.04ZM11.3533 2.68667L10.7067 3.33333L12.6667 5.29333L13.3133 4.64667C13.5689 4.38586 13.7113 4.03473 13.7094 3.66957C13.7076 3.30441 13.5617 2.95473 13.3035 2.69652C13.0453 2.43831 12.6956 2.29243 12.3304 2.29059C11.9653 2.28874 11.6141 2.43108 11.3533 2.68667Z" fill="white"/>
</svg>
