<svg width="16" height="16" viewBox="0 0 16 16" fill="none" xmlns="http://www.w3.org/2000/svg">
<path d="M2 3.83333C2 3.3471 2.19315 2.88079 2.53697 2.53697C2.88079 2.19315 3.3471 2 3.83333 2H10.476C10.7606 1.99993 11.0425 2.05594 11.3055 2.16484C11.5685 2.27374 11.8074 2.43339 12.0087 2.63467L13.3653 3.99133C13.772 4.398 14 4.94933 14 5.524V12.1667C14 12.6529 13.8068 13.1192 13.463 13.463C13.1192 13.8068 12.6529 14 12.1667 14H3.83333C3.3471 14 2.88079 13.8068 2.53697 13.463C2.19315 13.1192 2 12.6529 2 12.1667V3.83333ZM3.83333 3C3.37333 3 3 3.37333 3 3.83333V12.1667C3 12.6267 3.37333 13 3.83333 13H4V9.5C4 9.10218 4.15804 8.72064 4.43934 8.43934C4.72064 8.15804 5.10218 8 5.5 8H10.5C10.8978 8 11.2794 8.15804 11.5607 8.43934C11.842 8.72064 12 9.10218 12 9.5V13H12.1667C12.6267 13 13 12.6267 13 12.1667V5.524C13 5.214 12.8773 4.91733 12.658 4.69867L11.3013 3.342C11.1291 3.16948 10.9072 3.05524 10.6667 3.01533V4.83333C10.6667 5.03032 10.6279 5.22537 10.5525 5.40736C10.4771 5.58935 10.3666 5.75471 10.2273 5.89399C10.088 6.03328 9.92268 6.14377 9.74069 6.21915C9.5587 6.29453 9.36365 6.33333 9.16667 6.33333H6.16667C5.76884 6.33333 5.38731 6.1753 5.10601 5.89399C4.8247 5.61269 4.66667 5.23116 4.66667 4.83333V3H3.83333ZM11 13V9.5C11 9.36739 10.9473 9.24022 10.8536 9.14645C10.7598 9.05268 10.6326 9 10.5 9H5.5C5.36739 9 5.24021 9.05268 5.14645 9.14645C5.05268 9.24022 5 9.36739 5 9.5V13H11ZM5.66667 3V4.83333C5.66667 5.10933 5.89067 5.33333 6.16667 5.33333H9.16667C9.29928 5.33333 9.42645 5.28066 9.52022 5.18689C9.61399 5.09312 9.66667 4.96594 9.66667 4.83333V3H5.66667Z" fill="white"/>
</svg>
