<svg width="14" height="14" viewBox="0 0 14 14" fill="none" xmlns="http://www.w3.org/2000/svg">
<path d="M2.29119 11.2205C-0.066353 8.41088 0.300128 4.22229 3.1097 1.86474C3.86418 1.23016 4.75096 0.772225 5.70518 0.52443C5.77898 0.505324 5.85619 0.503418 5.93084 0.518859C6.00549 0.5343 6.07561 0.566676 6.13577 0.613491C6.19594 0.660305 6.24455 0.72031 6.27787 0.788878C6.31118 0.857447 6.32831 0.93275 6.32793 1.00898C6.31353 3.66533 6.83044 5.27929 7.95895 6.5174C9.14722 7.82037 10.6826 8.60459 13.0832 8.86929C13.1604 8.87787 13.2345 8.90438 13.2996 8.9467C13.3647 8.98902 13.419 9.04598 13.4581 9.11303C13.4973 9.18007 13.5203 9.25535 13.5251 9.33285C13.53 9.41034 13.5167 9.48791 13.4863 9.55935C13.0772 10.5194 12.4467 11.369 11.6463 12.0387C8.83733 14.3965 4.64789 14.0304 2.29119 11.2205ZM7.22315 7.1879C6.01712 5.86575 5.41742 4.19198 5.34033 1.68604C4.76198 1.91028 4.2246 2.22842 3.74984 2.62765C3.18199 3.1041 2.71355 3.68774 2.37126 4.34523C2.02897 5.00273 1.81953 5.7212 1.7549 6.45964C1.69028 7.19807 1.77174 7.942 1.99462 8.64896C2.2175 9.35591 2.57744 10.012 3.0539 10.5799C3.53035 11.1477 4.11399 11.6162 4.77148 11.9585C5.42898 12.3008 6.14745 12.5102 6.88589 12.5748C7.62432 12.6395 8.36825 12.558 9.07521 12.3351C9.78216 12.1122 10.4383 11.7523 11.0061 11.2758C11.5144 10.8506 11.9436 10.339 12.274 9.76462C10.0158 9.39984 8.45095 8.53563 7.22315 7.1879Z" fill="white"/>
</svg>
